<?xml version="1.0" encoding="utf-8"?>
<!-- Generator: Adobe Illustrator 27.5.0, SVG Export Plug-In . SVG Version: 6.00 Build 0)  -->
<svg version="1.1" id="Layer_1" xmlns="http://www.w3.org/2000/svg" xmlns:xlink="http://www.w3.org/1999/xlink" x="0px" y="0px"
	 viewBox="0 0 212.011 200" style="enable-background:new 0 0 212.011 200;" xml:space="preserve">
<g>
	<g>
		<g id="XMLID_11945_">
			<g id="XMLID_12072_">
				<path style="fill:#39A1FF;" d="M161.377,83.942L68.179,30.135c-0.826-0.477-1.583-0.531-2.182-0.238l-0.017,0.007
					c-0.011,0.005-0.022,0.009-0.033,0.015c-3.392,1.519-5.741,3.381-5.741,3.381l4.475,4.364v66.906
					c0,2.576,1.566,5.569,3.498,6.684l90.528,52.267l-3.154,1.557l2.285,3.576c0,0,2.799-0.766,5.968-3.502
					c0.658-0.468,1.069-1.418,1.069-2.735v-71.79C164.875,88.05,163.309,85.058,161.377,83.942z"/>
				<path style="fill:#150035;" d="M157.628,169.2l-2.756-4.313l2.835-1.4l-89.764-51.826c-2.094-1.208-3.734-4.324-3.734-7.092
					V37.862l-4.715-4.599l0.421-0.333c0.098-0.078,2.435-1.916,5.841-3.442c0.8-0.389,1.733-0.299,2.66,0.238l93.198,53.808
					c2.094,1.209,3.735,4.325,3.735,7.093v71.791c0,1.431-0.45,2.539-1.268,3.119c-3.178,2.746-5.999,3.54-6.117,3.572
					L157.628,169.2z M156.235,165.268l1.804,2.823c0.812-0.288,3.033-1.202,5.459-3.296c0.588-0.421,0.905-1.277,0.905-2.378V90.626
					c0-2.422-1.463-5.236-3.262-6.275L67.943,30.544c-0.657-0.38-1.259-0.458-1.739-0.223c-2.514,1.126-4.449,2.434-5.272,3.028
					l4.221,4.116v67.105c0,2.422,1.463,5.237,3.262,6.275l91.292,52.708L156.235,165.268z"/>
			</g>
			<g id="XMLID_12066_">
				<polygon style="fill:#150035;" points="64.718,44.144 64.718,68.86 122.154,102.55 157.874,81.898 78.6,36.13 				"/>
				<path style="fill:#150035;" d="M122.152,103.096L64.246,69.13V43.872L78.6,35.584l80.218,46.313L122.152,103.096z M65.191,68.59
					l56.965,33.414l34.775-20.106L78.6,36.675l-13.41,7.742V68.59z"/>
			</g>
			<g id="XMLID_12060_">
				<polygon style="fill:#150035;" points="63.515,36.567 64.639,37.664 64.639,39.829 74.551,33.837 69.734,31.056 63.975,34.323 
									"/>
				<path style="fill:#150035;" d="M64.167,40.666v-2.804l-1.166-1.137l0.555-2.707l6.18-3.505l5.743,3.316L64.167,40.666z
					 M64.03,36.409l1.082,1.055v1.528l8.512-5.145L69.732,31.6l-5.338,3.027L64.03,36.409z"/>
			</g>
			<g id="XMLID_12054_">
				<path style="fill:#39A1FF;" d="M137.199,164.678c-0.183-0.889-0.792-1.632-1.578-2.086l-3.62-2.09
					c-3.689-2.13-6.707-7.357-6.707-11.617v-24.03c0-0.03-0.016-0.058-0.042-0.073l-3.646-2.105
					c-0.066-0.038-0.141,0.024-0.119,0.096c0.285,0.948,0.446,1.9,0.446,2.803v17.409c0,1.073-0.227,1.953-0.621,2.621l-0.371-2.845
					c-0.006-0.046-0.048-0.078-0.093-0.073l-7.569,0.882c-0.03,0.004-0.06-0.009-0.078-0.033c-1.616-2.098-2.695-4.788-2.695-7.15
					v-17.409c0-0.934,0.172-1.72,0.475-2.35c0.019-0.039,0.005-0.084-0.033-0.105l-3.677-2.123
					c-0.056-0.032-0.126,0.008-0.126,0.073v23.836c0,4.313-3.056,6.082-6.791,3.926l-3.772-2.178
					c-0.395-0.228-0.673-0.281-0.926-0.122l-0.077,0.038c0,0-3.445,1.371-7.057,4.109c-0.043,0.032-0.046,0.096-0.006,0.132
					l2.844,2.539l0.015,0.011l34.865,19.362l0.023,0.019l3.415,4.006c0.023,0.027,0.055,0.039,0.088,0.026
					c0.505-0.187,4.718-1.797,7.196-4.236C137.208,165.711,137.324,165.284,137.199,164.678z"/>
				<path style="fill:#150035;" d="M129.738,170.656c-0.158,0-0.311-0.07-0.421-0.2l-3.369-3.951l-34.896-19.399l-3.017-2.688
					l-0.019-0.289c0.007-0.167,0.088-0.321,0.221-0.423c3.623-2.747,7.023-4.115,7.167-4.171l0.042-0.023
					c0.48-0.304,1.016-0.069,1.373,0.137l3.771,2.173c1.653,0.953,3.19,1.119,4.324,0.465c1.134-0.655,1.758-2.068,1.758-3.978
					v-23.836c0-0.197,0.106-0.382,0.277-0.481c0.17-0.098,0.384-0.101,0.555-0.002l3.681,2.125c0.251,0.142,0.348,0.451,0.224,0.715
					c-0.286,0.594-0.43,1.315-0.43,2.148v17.409c0,2.125,0.918,4.61,2.465,6.688l7.35-0.856c0.289-0.04,0.573,0.177,0.616,0.475
					l0.051,0.393c0.001-0.034,0.001-17.512,0.001-17.512c0-0.829-0.143-1.727-0.425-2.667c-0.067-0.219,0.006-0.453,0.184-0.595
					c0.178-0.142,0.422-0.162,0.621-0.048l3.648,2.107c0.17,0.097,0.279,0.282,0.279,0.482v24.03c0,4.12,2.903,9.148,6.47,11.208
					l3.62,2.09c0.945,0.545,1.602,1.42,1.804,2.4c0.203,0.985-0.148,1.49-0.376,1.704c-2.541,2.501-6.87,4.154-7.355,4.334
					C129.867,170.645,129.803,170.656,129.738,170.656z M91.637,146.368l34.91,19.389l3.312,3.879
					c1.057-0.414,4.614-1.907,6.771-4.03c0.148-0.14,0.185-0.448,0.106-0.833c-0.147-0.716-0.64-1.361-1.351-1.772l-3.62-2.09
					c-3.828-2.21-6.943-7.605-6.943-12.026v-23.806l-2.646-1.528c0.152,0.701,0.23,1.38,0.23,2.025v17.409
					c0,1.125-0.231,2.088-0.686,2.861l-0.697,1.184l-0.499-3.829l-7.189,0.838c-0.187,0.023-0.384-0.057-0.504-0.209
					c-1.752-2.275-2.796-5.056-2.796-7.442v-17.409c0-0.829,0.127-1.575,0.377-2.22l-2.794-1.614v23.164
					c0,2.262-0.792,3.965-2.231,4.796c-1.439,0.83-3.308,0.666-5.269-0.466l-3.772-2.173c-0.333-0.192-0.411-0.149-0.44-0.131
					l-0.118,0.06c-0.066,0.028-3.227,1.302-6.604,3.782L91.637,146.368z"/>
			</g>
			<g id="XMLID_12048_">
				<path style="fill:#1A0E33;" d="M137.199,164.773c-0.092-0.447-0.016-0.502-0.292-0.857c-3.509,2.935-7.214,4.009-7.214,4.009
					l-1.793,0.236l1.778,2.086c0.023,0.027,0.055,0.039,0.088,0.026c0.505-0.187,4.718-1.797,7.196-4.235
					C137.208,165.806,137.324,165.379,137.199,164.773z"/>
				<path style="fill:#150035;" d="M129.738,170.751c-0.158,0-0.311-0.07-0.421-0.2l-2.34-2.744l2.654-0.349
					c-0.021,0,3.593-1.078,6.973-3.904l0.376-0.314l0.3,0.387c0.265,0.343,0.301,0.526,0.338,0.794
					c0.01,0.069,0.021,0.15,0.043,0.257c0.203,0.985-0.149,1.49-0.376,1.704c-2.541,2.501-6.87,4.154-7.355,4.334
					C129.867,170.74,129.803,170.751,129.738,170.751z M128.821,168.514l1.038,1.218c1.057-0.414,4.614-1.907,6.771-4.03
					c0.148-0.14,0.185-0.448,0.106-0.834c-0.013-0.067-0.024-0.126-0.033-0.179c-3.381,2.655-6.731,3.648-6.879,3.69
					L128.821,168.514z"/>
			</g>
			<g id="XMLID_12042_">
				<path style="fill:#FFFFFF;" d="M126.073,166.082l0.023,0.019l0.922,1.081l8.274-4.728l-3.457-1.996
					c-0.527-0.304-1.037-0.677-1.53-1.096c-3.439,1.962-6.786,3.8-8.148,4.545L126.073,166.082z"/>
				<path style="fill:#150035;" d="M126.912,167.787l-1.129-1.326l-4.605-2.558l9.18-5.115l0.252,0.214
					c0.495,0.421,0.987,0.773,1.46,1.047l4.169,2.407L126.912,167.787z M123.134,163.91l3.312,1.874l0.677,0.794l7.221-4.126
					l-2.746-1.585c-0.44-0.254-0.891-0.567-1.343-0.933C127.429,161.543,124.687,163.057,123.134,163.91z"/>
			</g>
			<g id="XMLID_12036_">
				<path style="fill:#FFFFFF;" d="M100.354,142.235l-3.772-2.178c-0.395-0.228-0.673-0.281-0.926-0.122l-0.077,0.038
					c0,0-3.445,1.371-7.057,4.109c-0.043,0.032-0.046,0.096-0.006,0.132l2.844,2.539l0.015,0.011l0.367,0.558L100.354,142.235z"/>
				<path style="fill:#150035;" d="M91.597,147.956l-0.577-0.868l-2.985-2.669l-0.019-0.289c0.007-0.168,0.086-0.323,0.221-0.423
					c3.619-2.744,7.023-4.115,7.167-4.171l0.042-0.023c0.48-0.304,1.016-0.07,1.373,0.137l4.471,2.587L91.597,147.956z
					 M91.637,146.368l0.061,0.034l0.189,0.285l7.53-4.443l-3.072-1.778c-0.333-0.192-0.411-0.149-0.44-0.131l-0.118,0.06
					c-0.066,0.028-3.227,1.302-6.604,3.782L91.637,146.368z"/>
			</g>
			<g id="XMLID_12030_">
				<path style="fill:#150035;" d="M125.294,148.885v-9.302c-1.553-0.531-2.718-0.916-2.845-0.916c-0.048,0-0.234,0.047-0.516,0.128
					v4.191c0,1.073-0.227,1.953-0.621,2.621l-0.371-2.845c-0.006-0.046-0.048-0.078-0.093-0.073l-7.569,0.882
					c-0.03,0.004-0.06-0.009-0.078-0.033c-0.388-0.503-0.742-1.042-1.061-1.601c-0.209,0.069-0.332,0.109-0.332,0.109l0.827,16.247
					l3.992,2.412l0.108,0.141l3.251,1.806l0.472-0.603c0,0,4.019-2.2,8.065-4.696C126.594,154.876,125.294,151.675,125.294,148.885z
					"/>
				<path style="fill:#150035;" d="M120.109,163.261l-3.689-2.05l-0.113-0.149l-4.13-2.495l-0.858-16.857l1.041-0.342l0.191,0.335
					c0.277,0.485,0.577,0.946,0.893,1.373l7.35-0.856c0.289-0.04,0.573,0.177,0.616,0.475l0.051,0.393
					c0.001-0.035,0.001-4.65,0.001-4.65l0.343-0.098c0.472-0.135,0.566-0.146,0.646-0.146c0.121,0,0.247,0,2.998,0.941l0.32,0.109
					v9.64c0,2.567,1.199,5.701,3.13,8.179l0.323,0.416l-0.448,0.277c-3.687,2.274-7.396,4.327-8,4.661L120.109,163.261z
					 M117.051,160.482l2.812,1.562l0.284-0.362l0.084-0.047c0.039-0.021,3.764-2.063,7.602-4.412
					c-1.893-2.593-3.012-5.675-3.012-8.339v-8.964c-1.677-0.571-2.214-0.734-2.378-0.775c-0.011,0.003-0.025,0.006-0.038,0.009v3.83
					c0,1.125-0.231,2.088-0.686,2.861l-0.697,1.184l-0.499-3.829l-7.189,0.838c-0.184,0.024-0.384-0.057-0.504-0.209
					c-0.169-0.22-0.333-0.448-0.493-0.683l0.758,14.871L117.051,160.482z"/>
			</g>
			<g id="XMLID_12024_">
				<path style="fill:#39A1FF;" d="M128.761,166.873l-3.898-2.251c-3.681-2.125-6.665-7.293-6.665-11.544v-24.127l-3.869-2.234
					c0.324,1.015,0.508,2.037,0.508,3.004v17.409c0,3.644-2.558,5.121-5.714,3.299c-3.156-1.822-5.714-6.253-5.714-9.896v-17.409
					c0-0.967,0.185-1.776,0.509-2.417l-3.87-2.234V142.6c0,4.25-2.984,5.973-6.665,3.848l-3.898-2.251
					c-0.769-0.444-1.392-0.084-1.392,0.804s0.623,1.967,1.392,2.411l39.276,22.676c0.769,0.444,1.392,0.084,1.392-0.804
					C130.153,168.396,129.53,167.316,128.761,166.873z"/>
				<path style="fill:#150035;" d="M129.386,170.749c-0.275,0-0.57-0.084-0.861-0.253L89.249,147.82
					c-0.913-0.527-1.629-1.766-1.629-2.82c0-0.596,0.235-1.075,0.645-1.311c0.408-0.238,0.94-0.201,1.456,0.098l3.898,2.251
					c1.627,0.938,3.134,1.105,4.24,0.467c1.107-0.639,1.716-2.027,1.716-3.906v-24.945l4.965,2.867l-0.201,0.399
					c-0.304,0.6-0.457,1.341-0.457,2.204v17.409c0,3.488,2.457,7.744,5.477,9.488c1.375,0.793,2.641,0.936,3.568,0.4
					c0.927-0.535,1.437-1.703,1.437-3.29v-17.409c0-0.888-0.163-1.851-0.486-2.861l-0.372-1.162l5.164,2.981v24.4
					c0,4.093,2.883,9.088,6.428,11.135l3.898,2.251c0.913,0.527,1.629,1.766,1.629,2.82c0,0.596-0.235,1.074-0.644,1.31
					C129.802,170.698,129.6,170.749,129.386,170.749z M88.865,144.478c-0.05,0-0.093,0.01-0.128,0.03
					c-0.108,0.062-0.172,0.246-0.172,0.493c0,0.723,0.529,1.64,1.156,2.002l39.276,22.676c0.212,0.123,0.405,0.158,0.512,0.097
					c0.108-0.062,0.172-0.246,0.172-0.492c0-0.723-0.529-1.641-1.156-2.003l-3.898-2.251c-3.805-2.197-6.901-7.558-6.901-11.953
					v-23.855l-2.646-1.528c0.152,0.701,0.229,1.38,0.229,2.026v17.409c0,1.938-0.678,3.397-1.909,4.108
					c-1.231,0.712-2.835,0.569-4.513-0.401c-3.281-1.893-5.95-6.516-5.95-10.305v-17.409c0-0.83,0.127-1.575,0.377-2.221
					l-2.794-1.613v23.31c0,2.232-0.777,3.909-2.188,4.723c-1.411,0.816-3.252,0.65-5.185-0.467l-3.898-2.251
					C89.104,144.522,88.969,144.478,88.865,144.478z"/>
			</g>
			<g id="XMLID_12018_">
				<path style="fill:#FFFFFF;" d="M103.395,123.179v17.409c0,3.644,2.558,8.074,5.714,9.896c3.156,1.822,5.714,0.345,5.714-3.299
					v-17.409c0-0.967-0.185-1.99-0.508-3.004l2.029,1.171v-6.664h-12.656C103.498,121.821,103.395,122.456,103.395,123.179z"/>
				<path style="fill:#150035;" d="M111.662,151.739c-0.866,0-1.815-0.284-2.79-0.847c-3.281-1.894-5.95-6.516-5.95-10.305v-17.409
					c0-0.756,0.107-1.446,0.317-2.054l0.11-0.319h13.465v7.955l-1.749-1.01c0.153,0.702,0.23,1.38,0.23,2.025v17.409
					c0,1.938-0.679,3.397-1.91,4.108C112.868,151.591,112.287,151.739,111.662,151.739z M104.036,121.751
					c-0.112,0.431-0.169,0.909-0.169,1.428v17.409c0,3.488,2.457,7.744,5.477,9.488c1.373,0.792,2.639,0.937,3.569,0.4
					c0.927-0.535,1.437-1.703,1.437-3.29v-17.409c0-0.886-0.163-1.848-0.486-2.861l-0.371-1.163l2.376,1.373v-5.375H104.036z"/>
			</g>
			<g id="XMLID_12012_">
				<path style="fill:#150035;" d="M111.809,121.279h-8.123c-0.188,0.542-0.291,1.177-0.291,1.9v17.409
					c0,2.707,1.413,5.847,3.434,8.03c2.035,0.165,3.46-1.345,3.46-4.065v-17.409c0-0.967-0.185-1.99-0.509-3.005l2.029,1.171
					V121.279z"/>
				<path style="fill:#150035;" d="M107.128,149.103c-0.111,0-0.224-0.005-0.338-0.014l-0.183-0.015l-0.125-0.135
					c-2.162-2.337-3.559-5.615-3.559-8.351v-17.409c0-0.755,0.107-1.446,0.317-2.054l0.11-0.319h8.932v5.323l-1.749-1.01
					c0.153,0.702,0.23,1.38,0.23,2.026v17.409c0,1.604-0.462,2.878-1.336,3.684C108.807,148.806,108.019,149.103,107.128,149.103z
					 M107.047,148.157c0.694,0.024,1.283-0.194,1.739-0.615c0.675-0.622,1.031-1.656,1.031-2.989v-17.409
					c0-0.886-0.163-1.848-0.486-2.861l-0.37-1.162l2.376,1.372v-2.742h-7.3c-0.112,0.431-0.169,0.909-0.169,1.428v17.409
					C103.867,143.046,105.11,145.997,107.047,148.157z"/>
			</g>
			<g id="XMLID_12006_">
				<path style="fill:#39A1FF;" d="M105.335,122.236v17.409c0,3.644,2.558,8.074,5.714,9.896c1.018,0.588,1.971,0.827,2.799,0.767
					c0.615-0.697,0.974-1.758,0.974-3.123v-17.409c0-0.967-0.185-1.99-0.508-3.004l2.029,1.171v-1.804
					c-0.03-0.103-0.055-0.207-0.088-0.31l0.088,0.051v-4.601h-10.939C105.36,121.579,105.335,121.897,105.335,122.236z"/>
				<path style="fill:#150035;" d="M113.599,150.789c-0.875,0-1.831-0.286-2.787-0.838c-3.281-1.895-5.95-6.518-5.95-10.306v-17.409
					c0-0.345,0.025-0.689,0.073-1.025l0.059-0.405h11.819v7.955l-1.749-1.01c0.153,0.702,0.23,1.38,0.23,2.025v17.409
					c0,1.436-0.378,2.624-1.092,3.435l-0.127,0.145l-0.192,0.014C113.79,150.786,113.695,150.789,113.599,150.789z M105.826,121.751
					c-0.013,0.16-0.018,0.321-0.018,0.485v17.409c0,3.488,2.457,7.743,5.477,9.488c0.818,0.472,1.614,0.701,2.332,0.711
					c0.48-0.634,0.733-1.548,0.733-2.659v-17.409c0-0.886-0.163-1.848-0.486-2.861l-0.371-1.163l2.376,1.373l-0.014-0.975
					c-0.016-0.059-0.032-0.117-0.05-0.175l-0.377-1.162l0.441,0.253v-3.315H105.826z"/>
			</g>
			<g id="XMLID_12000_">
				<path style="fill:#150035;" d="M138.81,99.989l-1.068,51.649l20.487,11.828l6.646-3.812V90.848c0-1.649-0.643-3.466-1.612-4.855
					L138.81,99.989z"/>
				<path style="fill:#150035;" d="M158.229,164.011l-20.964-12.104l1.079-52.196l25.06-14.343l0.247,0.355
					c1.063,1.524,1.697,3.439,1.697,5.125v69.08L158.229,164.011z M138.221,151.368l20.01,11.553l6.172-3.541V90.848
					c0-1.371-0.477-2.92-1.289-4.224l-23.837,13.642L138.221,151.368z"/>
			</g>
			<g id="XMLID_11994_">
				<path style="fill:#FFFFFF;" d="M155.722,168.388L62.524,114.58c-1.932-1.116-3.498-4.108-3.498-6.684V36.106
					c0-2.576,1.566-3.76,3.498-2.645l93.198,53.808c1.932,1.116,3.498,4.108,3.498,6.684v71.79
					C159.22,168.32,157.654,169.504,155.722,168.388z"/>
				<path style="fill:#150035;" d="M157.113,169.281c-0.517,0-1.07-0.162-1.627-0.484l-93.198-53.808
					c-2.094-1.208-3.735-4.324-3.735-7.092V36.105c0-1.528,0.527-2.708,1.446-3.238c0.786-0.455,1.766-0.389,2.761,0.184
					l93.198,53.808c2.094,1.209,3.734,4.325,3.734,7.093v71.79c0,1.528-0.527,2.708-1.446,3.239
					C157.901,169.181,157.518,169.281,157.113,169.281z M61.137,33.512c-0.224,0-0.45,0.05-0.665,0.174
					c-0.618,0.357-0.973,1.239-0.973,2.42v71.791c0,2.422,1.463,5.237,3.262,6.275l93.198,53.808c0.487,0.28,1.195,0.54,1.816,0.184
					c0.619-0.357,0.973-1.24,0.973-2.421v-71.79c0-2.422-1.463-5.237-3.262-6.276L62.288,33.87
					C61.97,33.686,61.558,33.512,61.137,33.512z"/>
			</g>
			<g id="XMLID_11988_">
				<path style="fill:#39A1FF;" d="M155.408,160.763l-92.57-53.445c-0.552-0.319-1-1.174-1-1.91V37.587c0-0.736,0.448-1.074,1-0.756
					l92.57,53.445c0.552,0.319,0.999,1.174,0.999,1.91v67.821C156.408,160.743,155.96,161.082,155.408,160.763z"/>
				<path style="fill:#150035;" d="M155.812,161.353c-0.207,0-0.429-0.06-0.64-0.181l-92.57-53.446
					c-0.693-0.399-1.236-1.418-1.236-2.318V37.587c0-0.56,0.212-1.004,0.582-1.217c0.33-0.191,0.74-0.17,1.127,0.053l92.57,53.445
					c0.692,0.4,1.236,1.418,1.236,2.319v67.821c0,0.56-0.212,1.004-0.582,1.217C156.148,161.311,155.986,161.353,155.812,161.353z
					 M155.644,160.355c0.099,0.056,0.165,0.061,0.182,0.053c0.028-0.016,0.109-0.126,0.109-0.4V92.187
					c0-0.565-0.356-1.266-0.763-1.501L62.602,37.24c-0.099-0.057-0.164-0.063-0.182-0.053c-0.028,0.016-0.109,0.125-0.109,0.4
					v67.821c0,0.565,0.357,1.266,0.763,1.5L155.644,160.355z"/>
			</g>
			<g id="XMLID_11982_">
				<path style="fill:#150035;" d="M156.276,160.225l-92.57-53.445c-0.552-0.319-1-1.174-1-1.91V37.049
					c0-0.099,0.009-0.189,0.025-0.273c-0.495-0.207-0.881,0.126-0.881,0.808v67.821c0,0.736,0.447,1.591,1,1.91l92.57,53.445
					c0.478,0.276,0.876,0.058,0.975-0.482C156.356,160.261,156.317,160.248,156.276,160.225z"/>
				<path style="fill:#150035;" d="M155.812,161.353c-0.206,0-0.417-0.063-0.628-0.185l-92.57-53.445
					c-0.692-0.399-1.236-1.418-1.236-2.318V37.584c0-0.533,0.187-0.951,0.526-1.177c0.29-0.193,0.649-0.217,1.009-0.067l0.353,0.147
					l-0.07,0.375c-0.011,0.057-0.016,0.119-0.016,0.187v67.82c0,0.565,0.356,1.267,0.763,1.502l92.57,53.445l-0.008,0.016
					l-0.14,0.434l0.213-0.424l0.35,0.147l-0.068,0.373c-0.078,0.429-0.301,0.748-0.628,0.899
					C156.1,161.321,155.956,161.353,155.812,161.353z M62.331,105.558c0.055,0.532,0.384,1.133,0.755,1.348l0.038,0.022
					C62.763,106.587,62.474,106.084,62.331,105.558z"/>
			</g>
			<g id="XMLID_11976_">
				<path style="fill:#150035;" d="M112.473,140.302l-6.7-3.868c-0.299-0.173-0.542-0.636-0.542-1.035
					c0-0.399,0.243-0.582,0.542-0.409l6.7,3.868c0.299,0.173,0.542,0.636,0.542,1.035
					C113.015,140.291,112.772,140.474,112.473,140.302z"/>
				<path style="fill:#150035;" d="M112.689,140.839c-0.15,0-0.304-0.042-0.452-0.128l-6.701-3.869
					c-0.443-0.257-0.777-0.877-0.777-1.443c0-0.383,0.155-0.692,0.424-0.847c0.247-0.145,0.548-0.133,0.826,0.028l6.7,3.869
					c0.443,0.255,0.777,0.875,0.777,1.443c0,0.382-0.155,0.691-0.423,0.846C112.948,140.805,112.821,140.839,112.689,140.839z
					 M105.712,135.499c0.036,0.223,0.177,0.457,0.298,0.526l6.524,3.766c-0.035-0.223-0.177-0.456-0.296-0.525L105.712,135.499z"/>
			</g>
			
				<rect x="159.7" y="90.393" transform="matrix(0.8659 -0.5002 0.5002 0.8659 -23.6693 93.2109)" style="fill:#39A1FF;" width="4.664" height="0.726"/>
			
				<rect x="159.7" y="157.794" transform="matrix(0.8658 -0.5003 0.5003 0.8658 -57.3924 102.2928)" style="fill:#39A1FF;" width="4.664" height="0.726"/>
			
				<rect x="105.235" y="145.577" transform="matrix(0.8671 -0.4981 0.4981 0.8671 -58.6058 72.1801)" style="fill:#39A1FF;" width="1.513" height="0.726"/>
			
				<rect x="62.298" y="104.666" transform="matrix(0.8657 -0.5005 0.5005 0.8657 -43.89 46.4501)" style="fill:#39A1FF;" width="4.664" height="0.726"/>
			
				<rect x="61.906" y="41.04" transform="matrix(0.866 -0.5 0.5 0.866 -12.0951 37.6651)" style="fill:#39A1FF;" width="4.664" height="0.726"/>
			
				<rect x="149.851" y="155.74" transform="matrix(0.8658 -0.5003 0.5003 0.8658 -57.6861 97.0885)" style="fill:#39A1FF;" width="4.664" height="0.726"/>
			<g id="XMLID_11948_">
				<g id="XMLID_11956_">
					<path style="fill:#150035;" d="M162.742,146.317l-1.419,0.819c-0.251,0.145-0.454-0.009-0.454-0.343v-3.772
						c0-0.335,0.204-0.723,0.454-0.868l1.419-0.819c0.251-0.145,0.454,0.009,0.454,0.344v3.772
						C163.196,145.783,162.993,146.172,162.742,146.317z"/>
					<path style="fill:#39A1FF;" d="M161.141,147.554c-0.104,0-0.206-0.026-0.297-0.079c-0.216-0.124-0.339-0.373-0.339-0.682
						v-3.771c0-0.465,0.273-0.973,0.635-1.182l1.419-0.819c0.223-0.129,0.464-0.138,0.66-0.024c0.215,0.124,0.338,0.372,0.338,0.682
						v3.772c0,0.465-0.273,0.973-0.635,1.183l-1.42,0.819C161.385,147.52,161.261,147.554,161.141,147.554z M162.833,141.702
						l-1.329,0.765c-0.123,0.072-0.272,0.335-0.272,0.554v3.747l1.329-0.765c0.126-0.074,0.272-0.331,0.272-0.554V141.702z"/>
				</g>
				<g id="XMLID_11950_">
					<path style="fill:#150035;" d="M162.742,138.86l-1.419,0.819c-0.251,0.145-0.454-0.009-0.454-0.344v-3.772
						c0-0.335,0.204-0.723,0.454-0.868l1.419-0.819c0.251-0.145,0.454,0.009,0.454,0.344v3.772
						C163.196,138.326,162.993,138.715,162.742,138.86z"/>
					<path style="fill:#39A1FF;" d="M161.141,140.097c-0.104,0-0.206-0.026-0.297-0.079c-0.216-0.124-0.339-0.372-0.339-0.682
						v-3.772c0-0.464,0.273-0.972,0.635-1.182l1.42-0.819c0.223-0.13,0.464-0.138,0.66-0.024c0.215,0.124,0.338,0.373,0.338,0.682
						v3.771c0,0.465-0.273,0.974-0.635,1.183l-1.419,0.819C161.385,140.062,161.261,140.097,161.141,140.097z M162.833,134.244
						l-1.329,0.765c-0.123,0.072-0.272,0.335-0.272,0.554v3.747l1.329-0.766c0.126-0.072,0.272-0.33,0.272-0.553V134.244z"/>
				</g>
			</g>
			
				<rect x="120.624" y="156.261" transform="matrix(0.8714 -0.4906 0.4906 0.8714 -60.9825 80.6229)" style="fill:#39A1FF;" width="5.314" height="0.726"/>
		</g>
		<g id="XMLID_11893_">
			<g id="XMLID_11936_">
				<path style="fill:#39A1FF;" d="M88.935,95.59c0-3.374-2.369-7.477-5.291-9.164c-0.311-0.18-0.615-0.318-0.911-0.429
					c0.102-0.515,0.155-1.077,0.155-1.686c0-4.857-3.41-10.764-7.617-13.192c-1.244-0.718-2.415-1.043-3.452-1.031
					c-0.822-6.923-5.62-14.65-11.432-18.006c-3.211-1.854-6.051-2.052-8.147-0.824l-7.564,4.727L47,59.915
					c-0.074-0.045-0.144-0.102-0.218-0.145c-2.199-1.27-4.174-1.328-5.564-0.41l-7.454,4.647l2.953,5.574l3.966,0.716
					c1.389,2.949,3.6,5.623,6.1,7.066l32.717,18.889l-4.011,2.492l4.291,5.02l7.726-4.827l0.181-0.145
					C88.572,98.211,88.935,97.205,88.935,95.59z"/>
				<path style="fill:#150035;" d="M79.684,104.38l-4.912-5.747l3.808-2.366L46.545,77.771c-2.443-1.411-4.688-3.973-6.185-7.053
					l-3.953-0.714L33.14,63.84l8.211-5.131l0.014,0.021c1.236-0.625,2.777-0.612,4.4,0.024l-1.729-2.924l7.982-4.988
					c2.286-1.339,5.348-1.049,8.606,0.831c5.79,3.344,10.623,10.844,11.612,17.955c1.046,0.068,2.144,0.431,3.272,1.083
					c4.33,2.499,7.853,8.601,7.853,13.601c0,0.486-0.033,0.952-0.098,1.392c0.213,0.094,0.417,0.198,0.617,0.314
					c3.048,1.76,5.528,6.055,5.528,9.574c0,1.824-0.451,2.934-1.462,3.597L87.8,99.306L79.684,104.38z M76.203,98.855l3.67,4.294
					l7.518-4.725c0.762-0.501,1.071-1.341,1.071-2.833c0-3.219-2.267-7.146-5.055-8.756c-0.266-0.154-0.542-0.283-0.842-0.396
					l-0.375-0.141l0.078-0.393c0.097-0.489,0.146-1.025,0.146-1.594c0-4.699-3.31-10.434-7.38-12.783
					c-1.112-0.643-2.175-0.968-3.159-0.968c-0.018,0-0.476,0.005-0.476,0.005l-0.05-0.421c-0.813-6.845-5.628-14.436-11.199-17.653
					c-2.95-1.704-5.677-1.995-7.673-0.825l-7.162,4.475l3.053,5.164c0,0-1.797-1.11-1.825-1.126
					c-1.964-1.133-3.764-1.285-5.068-0.425l-0.392,0.259l-0.011-0.017l-6.688,4.179l2.64,4.982l3.979,0.718l0.104,0.22
					c1.396,2.964,3.605,5.528,5.909,6.858l33.4,19.283L76.203,98.855z"/>
			</g>
			<g id="XMLID_11930_">
				<path style="fill:#FFFFFF;" d="M83.778,86.638c-0.311-0.18-0.615-0.318-0.911-0.429c0.018-0.089-0.319-0.113-0.319-0.113
					l-7.687,4.8l-2.694,1.257l5.591,3.228l1.335-1.129l7.679-4.81C85.921,88.273,84.89,87.28,83.778,86.638z"/>
				<path style="fill:#150035;" d="M77.809,95.956l-6.663-3.847l3.516-1.639l7.766-4.854l0.153,0.011
					c0.326,0.023,0.492,0.109,0.585,0.193c0.298,0.119,0.576,0.254,0.848,0.411c1.131,0.653,2.217,1.667,3.14,2.934l0.299,0.409
					l-8.11,5.079L77.809,95.956z M73.187,92.197l4.519,2.61l1.082-0.915l7.296-4.575c-0.774-0.972-1.645-1.752-2.542-2.269
					c-0.267-0.154-0.542-0.284-0.841-0.397l-0.093-0.035l-7.496,4.681L73.187,92.197z"/>
			</g>
			<g id="XMLID_11924_">
				<path style="fill:#FFFFFF;" d="M75.135,71.095c-1.244-0.718-2.415-1.043-3.452-1.031c-0.007-0.061-0.295-0.067-0.295-0.067
					L55.294,79.88l8.359,4.94l2.669-2.29L79.3,74.937C78.103,73.34,76.673,71.983,75.135,71.095z"/>
				<path style="fill:#150035;" d="M63.703,85.399l-9.325-5.511l16.88-10.366l0.139,0.003c0.163,0.003,0.3,0.026,0.411,0.067
					c1.131,0.014,2.328,0.382,3.561,1.094c1.538,0.888,3.027,2.26,4.308,3.968l0.317,0.423l-13.399,7.839L63.703,85.399z
					 M56.209,79.872l7.392,4.37l2.482-2.119l12.515-7.323c-1.126-1.411-2.397-2.545-3.7-3.297c-1.132-0.654-2.211-0.984-3.21-0.968
					l-0.281,0.003L56.209,79.872z"/>
			</g>
			<g id="XMLID_11918_">
				<path style="fill:#FFFFFF;" d="M36.449,69.07c2.319,0.479,5.789,1.192,5.789,1.192l3.424-3.777L64.44,55.267
					c-1.261-1.274-2.626-2.361-4.053-3.186c-3.211-1.854-6.068-2.048-8.165-0.82l-7.546,4.724L47,59.915
					c-0.074-0.045-0.144-0.102-0.218-0.145c-2.199-1.27-4.174-1.328-5.564-0.41l-7.454,4.647L36.449,69.07z"/>
				<path style="fill:#150035;" d="M42.407,70.779l-6.271-1.291L33.14,63.84l8.211-5.131l0.014,0.021
					c1.236-0.625,2.777-0.613,4.4,0.024l-1.729-2.924l7.967-4.986c2.295-1.345,5.362-1.052,8.621,0.829
					c1.426,0.823,2.823,1.919,4.152,3.263l0.424,0.428L45.965,66.855L42.407,70.779z M36.762,68.653l5.307,1.093l3.35-3.665
					l18.254-10.905c-1.138-1.092-2.322-1.991-3.522-2.685c-2.951-1.704-5.682-1.998-7.69-0.822l-7.145,4.472l3.053,5.164
					c0,0-1.797-1.11-1.825-1.126c-1.965-1.135-3.765-1.285-5.068-0.425l-0.392,0.259l-0.011-0.017l-6.688,4.179L36.762,68.653z"/>
			</g>
			<g id="XMLID_11912_">
				<path style="fill:#150035;" d="M71.525,70.021c-0.426-3.584-1.922-7.378-4.068-10.674l-12.841,7.716l6.439,9.064l2.783-1.305
					L71.525,70.021z"/>
				<path style="fill:#150035;" d="M60.898,76.721l-6.963-9.801l13.669-8.213l0.248,0.382c2.247,3.452,3.718,7.315,4.141,10.876
					l0.035,0.298l-7.941,4.959L60.898,76.721z M55.296,67.205l5.916,8.326l2.425-1.138l7.382-4.613
					c-0.433-3.206-1.741-6.656-3.712-9.793L55.296,67.205z"/>
			</g>
			<g id="XMLID_11906_">
				<path style="fill:#150035;" d="M82.569,84.199c0-1.874-0.512-3.903-1.377-5.83l-14.449,8.454l5.707,4.498l2.277-0.637l7.687-4.8
					C82.516,85.37,82.569,84.807,82.569,84.199z"/>
				<path style="fill:#150035;" d="M72.345,91.84l-6.438-5.075l15.5-9.07l0.215,0.48c0.928,2.067,1.419,4.15,1.419,6.023
					c0,0.626-0.055,1.224-0.165,1.776l-0.04,0.201l-7.984,4.963L72.345,91.84z M67.579,86.881l4.975,3.921l1.98-0.554l7.453-4.654
					c0.073-0.437,0.11-0.905,0.11-1.395c0-1.597-0.389-3.369-1.127-5.153L67.579,86.881z"/>
			</g>
			<g id="XMLID_11900_">
				<path style="fill:#150035;" d="M79.779,103.764l7.726-4.827l0.181-0.145c0.886-0.581,1.248-1.587,1.248-3.202
					c0-1.076-0.243-2.225-0.665-3.347l-7.737,4.666l-3.692,0.994l-0.837,0.52l-0.136,0.765L79.779,103.764z"/>
				<path style="fill:#150035;" d="M79.684,104.38l-4.32-5.053l0.211-1.193l1.143-0.687l3.627-0.976l8.166-4.925l0.2,0.531
					c0.455,1.208,0.696,2.423,0.696,3.514c0,1.824-0.451,2.934-1.462,3.597L87.8,99.306L79.684,104.38z M76.371,99.051l3.502,4.097
					l7.518-4.725c0.762-0.501,1.071-1.341,1.071-2.833c0-0.819-0.154-1.723-0.448-2.642l-7.36,4.417l-3.624,0.975l-0.599,0.373
					L76.371,99.051z"/>
			</g>
			<g id="XMLID_11894_">
				<path style="fill:#39A1FF;" d="M39.093,64.572c0.779,0.45,1.531,1.02,2.239,1.679l0.013-0.007
					c-0.149-0.974-0.227-1.936-0.215-2.871c0.095-7.34,5.21-10.16,11.568-6.49c5.813,3.356,10.611,11.081,11.434,18.004
					c1.703-0.02,3.768,0.869,5.924,2.918c2.364,2.246,4.047,5.152,4.778,8.329c0.419,1.821,0.463,3.389,0.211,4.662
					c0.297,0.112,0.6,0.25,0.911,0.429c2.887,1.667,5.234,5.692,5.29,9.042c0.058,3.46-2.35,4.874-5.347,3.143L39.094,82.163
					c-4.167-2.406-7.552-8.224-7.616-13.054C31.414,64.241,34.877,62.139,39.093,64.572z"/>
				<path style="fill:#150035;" d="M78.312,104.626c-0.821,0-1.721-0.27-2.649-0.806L38.858,82.572
					c-4.336-2.504-7.785-8.414-7.852-13.456c-0.033-2.518,0.866-4.5,2.466-5.439c1.604-0.94,3.684-0.767,5.857,0.487
					c0.472,0.273,0.941,0.591,1.402,0.952c-0.056-0.604-0.08-1.188-0.073-1.747c0.048-3.695,1.339-6.45,3.636-7.756
					c2.321-1.321,5.389-1.013,8.64,0.863c5.791,3.343,10.624,10.841,11.614,17.952c1.855,0.12,3.861,1.163,5.833,3.036
					c2.463,2.34,4.162,5.302,4.913,8.566c0.382,1.657,0.476,3.16,0.281,4.474c0.212,0.094,0.416,0.198,0.617,0.314
					c3.039,1.754,5.466,5.902,5.526,9.444c0.03,1.849-0.594,3.246-1.76,3.932C79.467,104.482,78.911,104.626,78.312,104.626z
					 M35.749,64.025c-0.66,0-1.266,0.155-1.799,0.467c-1.299,0.762-2.028,2.443-1.999,4.611c0.062,4.662,3.372,10.337,7.38,12.651
					l36.805,21.25c1.297,0.748,2.483,0.882,3.345,0.375c0.86-0.506,1.319-1.607,1.294-3.102c-0.053-3.188-2.32-7.064-5.054-8.641
					c-0.267-0.154-0.542-0.284-0.841-0.397l-0.374-0.141l0.077-0.392c0.252-1.272,0.182-2.774-0.208-4.464
					c-0.709-3.082-2.314-5.881-4.642-8.093c-1.913-1.817-3.893-2.781-5.593-2.788l-0.424,0.005l-0.05-0.421
					c-0.814-6.846-5.629-14.434-11.201-17.651c-2.949-1.703-5.685-2.008-7.701-0.86c-1.993,1.134-3.115,3.601-3.159,6.948
					c-0.011,0.871,0.059,1.811,0.21,2.794l0.05,0.327l-0.583,0.325l-0.257-0.218c-0.709-0.661-1.433-1.204-2.164-1.626
					C37.756,64.346,36.698,64.025,35.749,64.025z"/>
			</g>
		</g>
		<g id="XMLID_11843_">
			<g id="XMLID_11886_">
				<path style="fill:#39A1FF;" d="M180.533,124.455c0-1.936-1.359-4.289-3.035-5.257c-0.178-0.103-0.352-0.182-0.523-0.246
					c0.058-0.295,0.089-0.618,0.089-0.967c0-2.787-1.956-6.175-4.37-7.568c-0.714-0.412-1.385-0.598-1.98-0.591
					c-0.472-3.972-3.224-8.405-6.559-10.33c-1.842-1.063-3.476-1.176-4.679-0.472l-4.334,2.711l1.333,2.254
					c-0.042-0.026-0.083-0.059-0.125-0.083c-1.261-0.728-2.395-0.762-3.192-0.235l-4.277,2.666l1.694,3.197l2.275,0.411
					c0.797,1.692,2.065,3.226,3.5,4.054l18.77,10.837l-2.301,1.43l2.462,2.88l4.432-2.769l0.104-0.083
					C180.325,125.959,180.533,125.382,180.533,124.455z"/>
				<path style="fill:#150035;" d="M175.187,129.76l-3.084-3.607l2.098-1.303l-18.087-10.443c-1.41-0.814-2.707-2.278-3.583-4.04
					l-2.265-0.409l-2.007-3.789l5.062-3.162l0.021,0.037c0.585-0.238,1.264-0.266,1.979-0.078l-0.82-1.387l4.755-2.972
					c1.372-0.805,3.2-0.638,5.135,0.48c3.328,1.921,6.113,6.199,6.738,10.288c0.582,0.065,1.185,0.277,1.802,0.633
					c2.539,1.466,4.605,5.045,4.605,7.978c0,0.234-0.013,0.462-0.039,0.679c0.082,0.04,0.16,0.082,0.238,0.127
					c1.833,1.058,3.271,3.547,3.271,5.665c0,0.697-0.096,1.685-0.93,2.231l-0.066,0.056L175.187,129.76z M173.537,126.379
					l1.838,2.149l4.145-2.604c0.287-0.19,0.541-0.489,0.541-1.469c0-1.753-1.282-3.973-2.8-4.848
					c-0.155-0.091-0.307-0.159-0.454-0.215l-0.374-0.141l0.078-0.392c0.053-0.267,0.08-0.561,0.08-0.875
					c0-2.632-1.854-5.844-4.133-7.16c-0.599-0.345-1.192-0.528-1.715-0.528l-0.448,0.005l-0.05-0.421
					c-0.46-3.869-3.179-8.159-6.326-9.977c-1.628-0.939-3.124-1.104-4.205-0.473l-3.932,2.46l2.062,3.487l-1.698-1.041
					c-1.092-0.633-2.048-0.722-2.728-0.272l-0.42,0.28l-0.009-0.016l-3.485,2.176l1.381,2.606l2.288,0.413l0.104,0.22
					c0.785,1.665,2.022,3.103,3.309,3.846l19.452,11.23L173.537,126.379z"/>
			</g>
			<g id="XMLID_11880_">
				<path style="fill:#FFFFFF;" d="M177.575,119.32c-0.179-0.103-0.353-0.182-0.523-0.246c0.01-0.051-0.183-0.065-0.183-0.065
					l-4.41,2.754l-1.545,0.721l3.207,1.852l0.766-0.648l4.406-2.76C178.804,120.258,178.213,119.688,177.575,119.32z"/>
				<path style="fill:#150035;" d="M174.172,124.91l-4.28-2.471l2.368-1.104l4.489-2.807l0.153,0.011
					c0.18,0.013,0.32,0.057,0.424,0.136c0.167,0.068,0.327,0.146,0.485,0.237c0.673,0.388,1.318,0.99,1.864,1.739l0.299,0.409
					l-4.835,3.029L174.172,124.91z M171.933,122.527l2.137,1.233l0.512-0.433l4.015-2.52c-0.391-0.457-0.82-0.826-1.258-1.079
					c-0.141-0.081-0.279-0.145-0.413-0.198l-4.215,2.633L171.933,122.527z"/>
			</g>
			<g id="XMLID_11874_">
				<path style="fill:#FFFFFF;" d="M172.616,110.403c-0.714-0.412-1.385-0.598-1.98-0.591c-0.004-0.035-0.169-0.039-0.169-0.039
					l-9.233,5.67l4.795,2.834l1.531-1.314l7.446-4.357C174.319,111.69,173.499,110.912,172.616,110.403z"/>
				<path style="fill:#150035;" d="M166.08,118.856l-5.761-3.405l10.02-6.153l0.138,0.004c0.105,0.002,0.192,0.016,0.265,0.039
					c0.675,0.015,1.383,0.235,2.11,0.655c0.906,0.523,1.781,1.329,2.532,2.329l0.317,0.424l-7.865,4.602L166.08,118.856z
					 M162.149,115.435l3.829,2.263l1.344-1.142l6.976-4.082c-0.592-0.706-1.248-1.276-1.918-1.663
					c-0.599-0.345-1.19-0.529-1.712-0.529l-0.026,0.001h-0.106L162.149,115.435z"/>
			</g>
			<g id="XMLID_11868_">
				<path style="fill:#FFFFFF;" d="M150.422,109.241c1.33,0.275,3.321,0.684,3.321,0.684l1.964-2.167l10.773-6.436
					c-0.723-0.731-1.507-1.355-2.325-1.827c-1.842-1.063-3.476-1.176-4.679-0.472l-4.334,2.711l1.333,2.254
					c-0.042-0.026-0.083-0.059-0.125-0.083c-1.261-0.728-2.395-0.762-3.192-0.235l-4.277,2.666L150.422,109.241z"/>
				<path style="fill:#150035;" d="M153.912,110.441l-3.803-0.783l-1.85-3.489l5.035-3.148l0.021,0.031
					c0.592-0.25,1.28-0.277,2.007-0.087l-0.82-1.387l4.692-2.94c1.431-0.838,3.264-0.669,5.198,0.448
					c0.835,0.482,1.651,1.122,2.424,1.904l0.424,0.428l-11.23,6.709L153.912,110.441z M150.735,108.823l2.839,0.584l1.891-2.054
					l10.243-6.12c-0.581-0.533-1.181-0.978-1.79-1.33c-1.627-0.939-3.116-1.109-4.205-0.473l-3.932,2.46l2.062,3.487l-1.698-1.041
					c-1.092-0.633-2.048-0.722-2.728-0.272l-0.392,0.258l-0.009-0.014l-3.512,2.196L150.735,108.823z"/>
			</g>
			<g id="XMLID_11862_">
				<path style="fill:#150035;" d="M170.545,109.786c-0.244-2.056-1.103-4.232-2.334-6.123l-7.367,4.426l3.694,5.2l1.597-0.749
					L170.545,109.786z"/>
				<path style="fill:#150035;" d="M164.382,113.884l-4.218-5.937l8.194-4.923l0.249,0.382c1.306,2.005,2.161,4.252,2.407,6.326
					l0.035,0.297l-4.664,2.912L164.382,113.884z M161.525,108.231l3.171,4.463l1.239-0.582l4.103-2.565
					c-0.253-1.718-0.946-3.554-1.978-5.242L161.525,108.231z"/>
			</g>
			<g id="XMLID_11856_">
				<path style="fill:#150035;" d="M176.881,117.92c0-1.075-0.294-2.239-0.79-3.345l-8.289,4.85l3.274,2.581l1.306-0.365l4.41-2.754
					C176.85,118.592,176.881,118.269,176.881,117.92z"/>
				<path style="fill:#150035;" d="M170.973,122.526l-4.007-3.159l9.34-5.465l0.216,0.479c0.544,1.211,0.832,2.434,0.832,3.538
					c0,0.375-0.033,0.731-0.099,1.059l-0.04,0.2l-4.706,2.917L170.973,122.526z M168.638,119.484l2.542,2.004l1.01-0.282
					l4.173-2.607c0.031-0.213,0.046-0.44,0.046-0.678c0-0.826-0.187-1.739-0.545-2.664L168.638,119.484z"/>
			</g>
			<g id="XMLID_11850_">
				<path style="fill:#150035;" d="M175.281,129.145l4.432-2.769l0.104-0.083c0.508-0.333,0.716-0.911,0.716-1.837
					c0-0.617-0.139-1.276-0.382-1.92l-4.439,2.677l-2.118,0.57l-0.48,0.298l-0.078,0.439L175.281,129.145z"/>
				<path style="fill:#150035;" d="M175.187,129.76l-2.654-3.103l0.154-0.866l0.785-0.465l2.054-0.553l4.867-2.935l0.2,0.531
					c0.27,0.715,0.412,1.436,0.412,2.087c0,0.697-0.096,1.685-0.93,2.231l-0.066,0.056L175.187,129.76z M173.537,126.379
					l1.838,2.149l4.145-2.604c0.287-0.19,0.541-0.489,0.541-1.469c0-0.377-0.06-0.787-0.175-1.209l-4.051,2.422l-2.051,0.552
					L173.537,126.379z"/>
			</g>
			<g id="XMLID_11844_">
				<path style="fill:#39A1FF;" d="M151.939,106.661c0.447,0.258,0.882,0.583,1.288,0.962c-0.085-0.559-0.127-1.113-0.12-1.649
					c0.055-4.211,2.989-5.829,6.637-3.723c3.335,1.925,6.088,6.357,6.559,10.329c0.977-0.011,2.161,0.498,3.399,1.674
					c1.356,1.289,2.322,2.955,2.741,4.778c0.241,1.045,0.265,1.944,0.121,2.675c0.17,0.064,0.344,0.143,0.523,0.246
					c1.656,0.956,3.003,3.265,3.035,5.188c0.033,1.985-1.348,2.796-3.068,1.803l-21.115-12.191c-2.39-1.38-4.333-4.718-4.369-7.489
					C147.534,106.47,149.52,105.265,151.939,106.661z"/>
				<path style="fill:#150035;" d="M174.439,129.841c-0.506,0-1.056-0.164-1.62-0.49l-21.115-12.191
					c-2.544-1.468-4.566-4.934-4.605-7.891c-0.02-1.519,0.532-2.72,1.514-3.296c0.984-0.577,2.25-0.479,3.563,0.278
					c0.158,0.091,0.316,0.191,0.472,0.3c-0.01-0.199-0.014-0.394-0.012-0.584c0.029-2.195,0.806-3.836,2.188-4.622
					c1.395-0.794,3.227-0.619,5.157,0.496c3.328,1.922,6.113,6.197,6.738,10.287c1.065,0.118,2.2,0.729,3.309,1.782
					c1.442,1.37,2.437,3.104,2.876,5.015c0.211,0.913,0.272,1.749,0.184,2.493c0.079,0.038,0.157,0.08,0.235,0.125
					c1.799,1.039,3.236,3.494,3.271,5.589c0.019,1.136-0.374,2-1.109,2.432C175.172,129.749,174.818,129.841,174.439,129.841z
					 M150.022,106.548c-0.343,0-0.658,0.079-0.931,0.24c-0.681,0.399-1.063,1.299-1.047,2.468c0.034,2.612,1.887,5.791,4.132,7.087
					l21.115,12.191c0.677,0.39,1.287,0.469,1.716,0.216c0.428-0.252,0.656-0.821,0.643-1.602c-0.029-1.765-1.285-3.913-2.798-4.787
					c-0.154-0.089-0.305-0.157-0.452-0.213l-0.375-0.14l0.078-0.393c0.139-0.702,0.099-1.535-0.118-2.477
					c-0.397-1.73-1.299-3.3-2.605-4.542c-1.05-0.997-2.129-1.545-3.042-1.545l-0.45,0.006l-0.05-0.422
					c-0.46-3.87-3.179-8.159-6.326-9.976c-1.627-0.939-3.126-1.115-4.218-0.492c-1.079,0.614-1.687,1.968-1.71,3.813
					c-0.006,0.489,0.033,1.017,0.118,1.57l0.051,0.336l-0.611,0.318l-0.248-0.244c-0.377-0.352-0.781-0.655-1.187-0.89
					C151.103,106.723,150.53,106.548,150.022,106.548z"/>
			</g>
		</g>
		<g id="XMLID_11738_">
			<g id="XMLID_11752_">
				<g id="XMLID_11766_">
					<g id="XMLID_11837_">
						<path style="fill:#FFFFFF;" d="M142.889,55.687c-5.476,3.161-9.915,10.85-9.915,17.173v53.713l-38.256-22.179V50.68
							c0-6.323,4.439-14.011,9.915-17.173L142.889,55.687z"/>
						<path style="fill:#150035;" d="M133.447,127.392l-39.2-22.728V50.68c0-6.463,4.554-14.35,10.151-17.582l0.237-0.137
							l39.198,22.726l-0.706,0.408c-5.337,3.081-9.679,10.602-9.679,16.764V127.392z M95.191,104.121l37.31,21.632V72.86
							c0-6.198,4.188-13.705,9.468-17.161l-37.334-21.645c-5.229,3.163-9.445,10.554-9.445,16.626V104.121z"/>
					</g>
					<g id="XMLID_11767_">
						<g id="XMLID_11831_">
							<path style="fill:#39A1FF;" d="M112.846,83.135l-11.417-6.591c-0.93-0.537-1.683-1.977-1.683-3.216V56.964
								c0-1.24,0.754-1.809,1.683-1.272l11.417,6.591c0.93,0.537,1.683,1.977,1.683,3.216v16.364
								C114.53,83.102,113.776,83.672,112.846,83.135z"/>
							<path style="fill:#150035;" d="M113.516,83.811c-0.291,0-0.599-0.089-0.906-0.266l-11.416-6.592
								c-1.077-0.621-1.92-2.213-1.92-3.625V56.964c0-0.825,0.299-1.47,0.819-1.77c0.457-0.264,1.016-0.233,1.574,0.089
								l11.416,6.591c1.077,0.622,1.92,2.214,1.92,3.625v16.364c0,0.825-0.299,1.47-0.819,1.77
								C113.979,83.752,113.753,83.811,113.516,83.811z M100.762,55.962c-0.069,0-0.136,0.014-0.198,0.049
								c-0.216,0.125-0.345,0.481-0.345,0.952v16.364c0,1.069,0.662,2.354,1.448,2.807l11.416,6.592
								c0.147,0.085,0.423,0.208,0.63,0.089c0.216-0.125,0.345-0.481,0.345-0.953V65.499c0-1.069-0.662-2.354-1.448-2.808
								L101.194,56.1C101.091,56.041,100.924,55.962,100.762,55.962z"/>
						</g>
						<g id="XMLID_11825_">
							<path style="fill:#FFFFFF;" d="M111.596,79.593l-8.916-5.148c-0.322-0.186-0.584-0.686-0.584-1.116V59.675
								c0-0.43,0.261-0.627,0.584-0.441l8.916,5.148c0.322,0.186,0.584,0.686,0.584,1.116v13.655
								C112.18,79.581,111.918,79.779,111.596,79.593z"/>
							<path style="fill:#150035;" d="M111.829,80.135c-0.155,0-0.315-0.045-0.469-0.133l-8.917-5.147
								c-0.467-0.27-0.82-0.926-0.82-1.525V59.675c0-0.399,0.16-0.721,0.438-0.881c0.255-0.146,0.565-0.135,0.854,0.031l8.917,5.147
								c0.467,0.27,0.82,0.926,0.82,1.524v13.655c0,0.399-0.16,0.72-0.438,0.881C112.096,80.101,111.965,80.135,111.829,80.135z
								 M102.568,59.714V73.33c0,0.28,0.19,0.616,0.348,0.707l8.792,5.076V65.497c0-0.28-0.19-0.616-0.347-0.707L102.568,59.714z"/>
						</g>
						<g id="XMLID_11814_">
							<path style="fill:#39A1FF;" d="M125.26,96.475l-24.382-14.077c-0.625-0.361-1.132-1.33-1.132-2.164
								c0-0.834,0.507-1.217,1.132-0.856l24.382,14.077c0.625,0.361,1.132,1.33,1.132,2.164
								C126.393,96.453,125.886,96.836,125.26,96.475z"/>
							<path style="fill:#150035;" d="M125.712,97.082c-0.224,0-0.46-0.067-0.688-0.199l-24.382-14.077
								c-0.768-0.443-1.369-1.573-1.369-2.573c0-0.611,0.229-1.094,0.628-1.325c0.353-0.204,0.795-0.182,1.214,0.06l24.382,14.078
								c0.768,0.443,1.369,1.573,1.369,2.572c0,0.611-0.229,1.094-0.628,1.325C126.078,97.036,125.899,97.082,125.712,97.082z
								 M125.497,96.066c0.115,0.066,0.22,0.089,0.269,0.06c0.075-0.043,0.155-0.221,0.155-0.507c0-0.659-0.418-1.479-0.896-1.755
								l-24.382-14.077c-0.114-0.066-0.216-0.09-0.269-0.06c-0.075,0.043-0.155,0.22-0.155,0.507c0,0.659,0.418,1.479,0.896,1.755
								L125.497,96.066z"/>
						</g>
						<g id="XMLID_11808_">
							<path style="fill:#39A1FF;" d="M121.167,99.922L100.879,88.12c-0.625-0.361-1.132-1.33-1.132-2.164s0.507-1.217,1.132-0.856
								l20.288,11.802c0.625,0.361,1.132,1.33,1.132,2.164C122.3,99.9,121.793,100.283,121.167,99.922z"/>
							<path style="fill:#150035;" d="M121.619,100.529c-0.224,0-0.46-0.066-0.688-0.199l-20.29-11.802
								c-0.766-0.442-1.368-1.572-1.368-2.572c0-0.611,0.229-1.094,0.628-1.325c0.353-0.204,0.795-0.182,1.214,0.06l20.29,11.803
								c0.766,0.442,1.368,1.572,1.368,2.572c0,0.611-0.229,1.094-0.628,1.324C121.984,100.483,121.805,100.529,121.619,100.529z
								 M121.405,99.514c0.115,0.067,0.218,0.088,0.267,0.059c0.075-0.043,0.155-0.22,0.155-0.507c0-0.66-0.419-1.48-0.897-1.756
								l-20.29-11.802c-0.112-0.066-0.215-0.089-0.268-0.059c-0.075,0.043-0.155,0.22-0.155,0.507c0,0.659,0.418,1.479,0.896,1.755
								L121.405,99.514z"/>
						</g>
						<g id="XMLID_11802_">
							<path style="fill:#39A1FF;" d="M123.432,72.026l-5.123-2.889c-0.626-0.361-1.133-1.33-1.133-2.164
								c0-0.834,0.507-1.217,1.133-0.856l5.123,2.889c0.625,0.361,1.132,1.33,1.132,2.164S124.057,72.387,123.432,72.026z"/>
							<path style="fill:#150035;" d="M123.884,72.633c-0.224,0-0.458-0.066-0.686-0.197l-5.121-2.888
								c-0.771-0.445-1.373-1.576-1.373-2.575c0-0.612,0.229-1.094,0.628-1.325c0.351-0.204,0.795-0.182,1.213,0.06l5.119,2.887
								c0.771,0.446,1.372,1.576,1.372,2.575c0,0.612-0.229,1.094-0.628,1.325C124.248,72.588,124.07,72.633,123.884,72.633z
								 M117.859,66.454c-0.022,0-0.041,0.004-0.056,0.012c-0.074,0.043-0.155,0.22-0.155,0.507c0,0.659,0.419,1.479,0.896,1.755
								l5.123,2.889c0.114,0.066,0.218,0.089,0.268,0.06c0.075-0.043,0.155-0.22,0.155-0.507c0-0.659-0.419-1.479-0.896-1.755
								l-5.119-2.887C117.991,66.479,117.915,66.454,117.859,66.454z"/>
						</g>
						<g id="XMLID_11792_">
							<path style="fill:#39A1FF;" d="M125.158,78.814l-6.849-3.955c-0.626-0.361-1.133-1.33-1.133-2.164
								c0-0.834,0.507-1.217,1.133-0.856l6.849,3.955c0.626,0.361,1.132,1.33,1.132,2.164
								C126.291,78.792,125.784,79.175,125.158,78.814z"/>
							<path style="fill:#150035;" d="M125.61,79.421c-0.224,0-0.46-0.066-0.688-0.198l-6.85-3.955
								c-0.767-0.443-1.368-1.573-1.368-2.573c0-0.612,0.229-1.095,0.628-1.325c0.351-0.204,0.795-0.181,1.213,0.06l6.85,3.955
								c0.767,0.443,1.368,1.573,1.368,2.573c0,0.612-0.229,1.094-0.628,1.325C125.975,79.375,125.797,79.421,125.61,79.421z
								 M125.395,78.405c0.114,0.066,0.216,0.088,0.269,0.06c0.075-0.043,0.155-0.22,0.155-0.507c0-0.659-0.419-1.479-0.896-1.755
								l-6.85-3.955c-0.113-0.066-0.216-0.089-0.269-0.06c-0.074,0.043-0.155,0.22-0.155,0.507c0,0.659,0.419,1.479,0.896,1.755
								L125.395,78.405z"/>
						</g>
						<g id="XMLID_11786_">
							<path style="fill:#39A1FF;" d="M125.158,84.536l-6.849-3.955c-0.626-0.361-1.133-1.33-1.133-2.164
								c0-0.834,0.507-1.217,1.133-0.856l6.849,3.955c0.626,0.361,1.132,1.33,1.132,2.164
								C126.291,84.514,125.784,84.897,125.158,84.536z"/>
							<path style="fill:#150035;" d="M125.61,85.143c-0.224,0-0.46-0.066-0.688-0.198l-6.85-3.955
								c-0.767-0.443-1.368-1.573-1.368-2.573c0-0.612,0.229-1.094,0.628-1.325c0.351-0.204,0.795-0.182,1.213,0.06l6.85,3.955
								c0.767,0.443,1.368,1.573,1.368,2.573c0,0.612-0.229,1.094-0.628,1.325C125.975,85.097,125.797,85.143,125.61,85.143z
								 M125.395,84.127c0.114,0.066,0.216,0.089,0.269,0.06c0.075-0.043,0.155-0.22,0.155-0.507c0-0.659-0.419-1.479-0.896-1.755
								l-6.85-3.955c-0.113-0.066-0.216-0.088-0.269-0.06c-0.074,0.043-0.155,0.22-0.155,0.507c0,0.659,0.419,1.479,0.896,1.755
								L125.395,84.127z"/>
						</g>
						<g id="XMLID_11781_">
							<path style="fill:#39A1FF;" d="M125.158,90.258l-6.849-3.955c-0.626-0.361-1.133-1.33-1.133-2.164
								c0-0.834,0.507-1.217,1.133-0.856l6.849,3.955c0.626,0.361,1.132,1.33,1.132,2.164
								C126.291,90.236,125.784,90.619,125.158,90.258z"/>
							<path style="fill:#150035;" d="M125.61,90.865c-0.224,0-0.46-0.066-0.688-0.198l-6.85-3.955
								c-0.767-0.443-1.368-1.573-1.368-2.573c0-0.612,0.229-1.094,0.628-1.325c0.351-0.203,0.795-0.181,1.213,0.06l6.85,3.955
								c0.767,0.443,1.368,1.573,1.368,2.573c0,0.612-0.229,1.094-0.628,1.325C125.975,90.819,125.797,90.865,125.61,90.865z
								 M125.395,89.849c0.114,0.066,0.216,0.088,0.269,0.06c0.075-0.043,0.155-0.22,0.155-0.507c0-0.659-0.419-1.479-0.896-1.755
								l-6.85-3.955c-0.113-0.066-0.216-0.089-0.269-0.06c-0.074,0.043-0.155,0.22-0.155,0.507c0,0.659,0.419,1.479,0.896,1.755
								L125.395,89.849z"/>
						</g>
						<g id="XMLID_11773_">
							<path style="fill:#39A1FF;" d="M113.963,101.5l-13.085-7.658c-0.625-0.361-1.132-1.33-1.132-2.164
								c0-0.834,0.507-1.217,1.132-0.856l13.085,7.657c0.626,0.361,1.133,1.33,1.133,2.164
								C115.096,101.478,114.589,101.861,113.963,101.5z"/>
							<path style="fill:#150035;" d="M114.415,102.107c-0.224,0-0.46-0.067-0.688-0.199l-13.087-7.659
								c-0.765-0.441-1.367-1.571-1.367-2.571c0-0.611,0.229-1.094,0.628-1.325c0.353-0.204,0.795-0.183,1.214,0.06l13.087,7.66
								c0.765,0.441,1.367,1.571,1.367,2.571c0,0.611-0.229,1.094-0.628,1.325C114.78,102.061,114.602,102.107,114.415,102.107z
								 M114.2,101.091c0.115,0.066,0.219,0.088,0.268,0.06c0.075-0.043,0.155-0.221,0.155-0.507c0-0.659-0.418-1.479-0.896-1.755
								L100.64,91.23c-0.113-0.066-0.216-0.088-0.267-0.058c-0.075,0.043-0.155,0.22-0.155,0.507c0,0.659,0.418,1.479,0.896,1.755
								L114.2,101.091z"/>
						</g>
						<g id="XMLID_11768_">
							<path style="fill:#39A1FF;" d="M107.728,103.519l-6.85-3.955c-0.625-0.361-1.132-1.33-1.132-2.164
								c0-0.834,0.507-1.217,1.132-0.856l6.85,3.955c0.626,0.361,1.133,1.33,1.133,2.164
								C108.861,103.497,108.354,103.88,107.728,103.519z"/>
							<path style="fill:#150035;" d="M108.18,104.126c-0.224,0-0.46-0.067-0.688-0.199l-6.85-3.955
								c-0.768-0.443-1.369-1.573-1.369-2.572c0-0.612,0.229-1.095,0.628-1.325c0.353-0.203,0.795-0.182,1.214,0.06l6.85,3.954
								c0.767,0.443,1.368,1.573,1.368,2.573c0,0.611-0.229,1.094-0.628,1.324C108.545,104.08,108.367,104.126,108.18,104.126z
								 M107.965,103.111c0.116,0.067,0.219,0.089,0.268,0.06c0.075-0.043,0.155-0.221,0.155-0.507c0-0.66-0.419-1.48-0.896-1.756
								l-6.85-3.954c-0.115-0.067-0.221-0.089-0.269-0.06c-0.075,0.043-0.155,0.221-0.155,0.507c0,0.659,0.418,1.479,0.896,1.755
								L107.965,103.111z"/>
						</g>
					</g>
				</g>
				
					<rect x="134.367" y="49.491" transform="matrix(0.4959 -0.8684 0.8684 0.4959 20.0288 144.914)" style="fill:#150035;" width="0.944" height="11.427"/>
				
					<rect x="125.863" y="48.307" transform="matrix(0.496 -0.8683 0.8683 0.496 19.9546 135.0756)" style="fill:#150035;" width="0.944" height="4.083"/>
				
					<rect x="111.855" y="29.808" transform="matrix(0.4959 -0.8684 0.8684 0.4959 19.8488 118.8892)" style="fill:#150035;" width="0.944" height="25.08"/>
				
					<rect x="111.528" y="48.918" transform="matrix(0.5016 -0.8651 0.8651 0.5016 12.0093 122.1394)" style="fill:#150035;" width="0.945" height="3.459"/>
				
					<rect x="102.481" y="38.57" transform="matrix(0.5016 -0.8651 0.8651 0.5016 12.0363 111.6965)" style="fill:#150035;" width="0.945" height="13.664"/>
			</g>
			<g id="XMLID_11747_">
				<rect x="92.064" y="30.627" style="fill:#FFFFFF;" width="0.726" height="3.691"/>
				<rect x="90.582" y="32.109" style="fill:#FFFFFF;" width="3.69" height="0.726"/>
			</g>
			<g id="XMLID_11739_">
				<rect x="171.978" y="80.569" style="fill:#FFFFFF;" width="0.726" height="3.691"/>
				<rect x="170.496" y="82.051" style="fill:#FFFFFF;" width="3.691" height="0.726"/>
			</g>
		</g>
		<g id="XMLID_11704_">
			<g id="XMLID_11724_">
				<g id="XMLID_11733_">
					<polygon style="fill:#FFFFFF;" points="144.571,145.243 120.174,131.164 120.167,131.15 120.167,110.549 126.269,106.502 
						144.565,117.064 144.571,117.077 					"/>
					<path style="fill:#150035;" d="M144.544,145.796l-24.846-14.36V110.26l0.259-0.135l6.008-3.991l0.24-0.24l18.836,10.896v28.733
						L144.544,145.796z M120.639,130.888l23.462,13.545v-27.093l-17.815-10.284l-5.647,3.747V130.888z"/>
				</g>
				<g id="XMLID_11725_">
					<polygon style="fill:#39A1FF;" points="120.185,110.559 126.266,114.064 126.266,106.523 126.254,106.509 120.179,110.54 					
						"/>
					<path style="fill:#150035;" d="M126.29,114.606l-6.581-3.782l-0.005-0.284l0.003-0.271l6.53-4.315l0.499,0.285v8.087
						L126.29,114.606z M121.062,110.521l4.734,2.733v-5.875L121.062,110.521z"/>
				</g>
			</g>
			<g id="XMLID_11705_">
				<g id="XMLID_11719_">
					<path style="fill:#39A1FF;" d="M137.823,127.843c0,3.478-2.441,4.887-5.453,3.148c-3.012-1.739-5.453-5.968-5.453-9.446
						c0-3.478,2.442-4.887,5.453-3.148C135.382,120.136,137.823,124.365,137.823,127.843z"/>
					<path style="fill:#150035;" d="M134.806,132.211c-0.83,0-1.739-0.272-2.673-0.811c-3.137-1.811-5.69-6.231-5.69-9.854
						c0-1.858,0.651-3.257,1.833-3.939c1.183-0.683,2.719-0.548,4.329,0.382c3.137,1.811,5.689,6.231,5.689,9.854
						c0,1.858-0.651,3.257-1.834,3.939C135.965,132.069,135.406,132.211,134.806,132.211z M129.936,118.123
						c-0.437,0-0.837,0.099-1.186,0.301c-0.878,0.507-1.361,1.616-1.361,3.122c0,3.322,2.341,7.376,5.218,9.037
						c1.304,0.753,2.505,0.89,3.383,0.382c0.878-0.506,1.361-1.615,1.361-3.122c0-3.322-2.34-7.375-5.217-9.036
						C131.348,118.352,130.599,118.123,129.936,118.123z"/>
				</g>
				<g id="XMLID_11714_">
					<path style="fill:#FFFFFF;" d="M134.131,119.756l-1.754,4.918c0,0,0.004,0.026,0.015,0.033l5.431,3.136
						C137.823,125.078,136.277,121.842,134.131,119.756z"/>
					<path style="fill:#150035;" d="M138.296,128.661l-6.481-3.742l2.118-6.014l0.527,0.512c2.294,2.229,3.836,5.615,3.836,8.425
						V128.661z M132.947,124.482l4.356,2.515c-0.241-2.16-1.365-4.562-2.983-6.364L132.947,124.482z"/>
				</g>
				<g id="XMLID_11706_">
					<path style="fill:#39A1FF;" d="M136.706,131.006c0.698-0.655,1.117-1.73,1.117-3.163l-5.383-3.108
						c-0.023-0.013-0.032,0.015-0.014,0.041L136.706,131.006z"/>
					<path style="fill:#150035;" d="M136.628,131.726l-4.806-6.996l0.511-0.592l5.963,3.432v0.272c0,1.517-0.438,2.73-1.266,3.507
						L136.628,131.726z M133.94,126.145l2.807,4.086c0.36-0.537,0.565-1.256,0.599-2.119L133.94,126.145z"/>
				</g>
			</g>
		</g>
	</g>
</g>
</svg>
